<svg class="svg-icon" style="width: 1.0009765625em;height: 1em;vertical-align: middle;fill: currentColor;overflow: hidden;" viewBox="0 0 1025 1024" version="1.1" xmlns="http://www.w3.org/2000/svg"><path d="M989.184 470.016h-48.128c-19.968 0-36.352 15.872-36.352 36.352s16.384 36.352 36.352 36.352h48.128c19.968 0 36.352-15.872 36.352-36.352s-16.384-36.352-36.352-36.352zM502.272 361.472c13.824 13.824 37.376 13.824 51.2 0s13.824-36.864 0-51.2l-34.304-33.792c-13.824-13.824-37.376-13.824-51.2 0s-13.824 36.864 0 50.688l34.304 34.304zM930.304 276.992c-13.824-13.824-37.376-13.824-51.2 0l-34.304 33.792c-13.824 13.824-13.824 36.864 0 51.2 13.824 13.312 36.864 13.312 51.2-0.512l34.304-33.792c13.824-14.336 13.824-36.864 0-50.688zM698.88 301.568c19.968 0 36.352-15.872 36.352-36.352v-48.128c0-19.968-16.384-36.352-36.352-36.352-19.968 0-36.352 15.872-36.352 36.352v48.128c0 20.48 16.384 36.352 36.352 36.352zM702.464 657.408c92.16 0 166.912 76.8 166.912 168.448 0 86.016-66.56 157.696-150.528 165.888H167.936C73.728 978.432 6.656 896 6.656 798.72c0-91.136 62.976-167.424 147.968-187.904 27.648-99.84 121.856-176.128 230.4-176.128 131.072 0 233.984 109.568 233.984 239.104 0 3.072-0.512 5.632-0.512 9.216 24.576-14.336 53.248-25.6 83.968-25.6z"  /><path d="M671.232 598.528c10.752-1.536 20.992-2.56 31.232-2.56 43.52 0 83.968 12.288 118.784 33.792 36.352-33.28 59.392-80.384 59.392-134.144 0-99.84-80.896-180.224-180.224-180.224-71.168 0-133.12 41.472-161.792 101.888 64.512 39.936 113.152 104.96 132.608 181.248z"  /></svg>