<svg class="svg-icon" style="width: 1em;height: 1em;vertical-align: middle;fill: currentColor;overflow: hidden;" viewBox="0 0 1024 1024" version="1.1" xmlns="http://www.w3.org/2000/svg"><path d="M751.616 752.64h-501.76c-8.704 0-15.36 6.656-15.36 15.36s6.656 15.36 15.36 15.36h501.76c8.704 0 15.36-6.656 15.36-15.36s-7.168-15.36-15.36-15.36zM751.616 846.336h-501.76c-8.704 0-15.36 6.656-15.36 15.36s6.656 15.36 15.36 15.36h501.76c8.704 0 15.36-6.656 15.36-15.36s-7.168-15.36-15.36-15.36zM751.616 938.496h-501.76c-8.704 0-15.36 6.656-15.36 15.36s6.656 15.36 15.36 15.36h501.76c8.704 0 15.36-6.656 15.36-15.36s-7.168-15.36-15.36-15.36zM730.112 397.312c-26.112 0-50.176 9.728-70.656 22.528 0-3.072 0.512-5.632 0.512-8.192 0-114.176-86.528-210.944-197.12-210.944-91.648 0-171.008 67.072-194.048 155.648-71.68 17.92-124.416 85.504-124.416 165.888 0 86.016 56.32 158.72 135.68 170.496h464.384c70.656-7.168 126.976-70.656 126.976-146.432-0.512-81.408-63.488-148.992-141.312-148.992z"  /></svg>