<svg class="svg-icon" style="width: 1em;height: 1em;vertical-align: middle;fill: currentColor;overflow: hidden;" viewBox="0 0 1024 1024" version="1.1" xmlns="http://www.w3.org/2000/svg"><path d="M507.392 850.432c-19.968 20.992-46.08 52.224-52.224 76.8-7.168 28.672 7.68 57.856 33.28 65.024 25.088 7.168 51.712-9.728 58.88-38.4 6.144-24.576-2.048-65.536-9.728-94.72-4.096-13.824-20.48-18.944-30.208-8.704zM313.856 767.488c-11.776-11.776-30.208-11.776-41.984 0l-47.104 47.104c-11.776 11.776-11.776 30.208 0 41.984l47.104 47.104c11.776 11.776 30.208 11.776 41.984 0l47.104-47.104c11.776-11.776 11.776-30.208 0-41.984l-47.104-47.104zM733.696 764.928c-11.776-11.776-30.208-11.776-41.984 0l-47.104 47.104c-11.776 11.776-11.776 30.208 0 41.984l47.104 47.104c11.776 11.776 30.208 11.776 41.984 0l47.104-47.104c11.776-11.776 11.776-30.208 0-41.984l-47.104-47.104zM729.088 397.824c-26.112 0-50.176 9.728-70.656 22.528 0-3.072 0.512-5.632 0.512-8.192 0-114.176-86.528-210.944-197.12-210.944-91.648 0-171.008 67.072-194.048 155.648-71.68 17.92-124.416 85.504-124.416 165.888 0 86.016 56.32 158.72 135.68 170.496h72.192c2.048-20.992 11.264-41.472 27.136-57.344l53.76-53.76c17.92-17.92 41.984-27.648 67.072-27.648s49.152 9.728 67.072 27.648l53.76 53.76c15.872 15.872 25.088 36.352 27.136 57.344H743.424C814.08 686.08 870.4 622.592 870.4 546.816c-0.512-81.408-63.488-148.992-141.312-148.992z"  /><path d="M522.752 635.392c-13.312-13.312-34.304-13.312-47.616 0l-53.76 53.76c-13.312 13.312-13.312 34.304 0 47.616l53.76 53.76c13.312 13.312 34.304 13.312 47.616 0l53.76-53.76c13.312-13.312 13.312-34.304 0-47.616l-53.76-53.76z"  /></svg>