<svg class="svg-icon" style="width: 1em;height: 1em;vertical-align: middle;fill: currentColor;overflow: hidden;" viewBox="0 0 1024 1024" version="1.1" xmlns="http://www.w3.org/2000/svg"><path d="M713.472 395.264c-26.112 0-50.176 9.728-70.656 22.528 0-3.072 0.512-5.632 0.512-8.192 0-114.176-86.528-210.944-197.12-210.944-91.648 0-171.008 67.072-194.048 155.648-71.68 17.92-124.416 85.504-124.416 165.888 0 86.016 56.32 158.72 135.68 170.496h85.504c-3.072-16.384-0.512-33.28 8.704-47.616l22.016-35.328c12.288-19.968 33.28-31.744 56.832-31.744h3.072c12.288-13.824 30.208-22.528 50.176-22.528 6.144 0 11.776 1.024 17.408 2.56l41.984 11.264c19.456 5.12 35.328 18.432 43.52 36.864 2.56 5.12 4.096 10.752 5.12 16.384 20.48 10.752 34.304 31.744 35.328 56.32l0.512 13.824h94.72c70.656-7.168 126.976-70.656 126.976-146.432-1.024-80.896-64-148.992-141.824-148.992z"  /><path d="M571.136 678.912c0-3.072-3.072-5.632-6.656-5.12l-43.52 9.728c-4.096 1.024-7.68-3.584-5.632-7.68l20.48-41.984c1.536-3.072 0-6.656-3.584-7.68l-41.984-11.264c-3.072-1.024-6.656 1.536-6.656 4.608l-2.56 45.056c-0.512 4.608-5.632 6.656-8.704 3.584l-32.768-30.208c-2.56-2.048-6.144-1.536-8.192 1.024l-21.504 35.328c-1.536 3.072-0.512 6.656 2.56 7.68l21.504 7.68L452.864 696.32c4.096 1.536 4.608 7.68 1.024 9.728l-39.936 22.016c-2.56 1.536-3.584 5.12-1.536 7.68l23.552 32.768c2.048 2.56 6.144 3.072 8.192 0.512l32.768-37.376c3.072-3.072 8.192-2.048 9.216 2.56l9.728 49.152c0.512 3.072 4.096 5.12 7.168 4.096l37.376-14.848c3.072-1.024 4.096-5.12 2.56-7.68l-24.576-40.96c-2.56-4.096 1.024-8.704 5.632-8.192l41.984 8.192c3.584 0.512 6.656-2.048 6.144-5.632l-1.024-28.672v-10.752zM356.608 806.4l-40.96 8.704c-4.096 1.024-7.168-3.584-5.632-7.168l19.456-39.936c1.536-3.072 0-6.144-3.072-7.168l-39.936-10.752c-3.072-1.024-6.144 1.536-6.144 4.608l-2.56 42.496c0 4.096-5.12 6.144-8.192 3.584l-31.232-28.672c-2.56-2.048-6.144-1.536-7.68 1.024l-20.48 33.28c-1.536 2.56-0.512 6.144 2.56 7.68l38.4 13.824c4.096 1.536 4.608 7.168 1.024 9.216l-37.376 20.992c-2.56 1.536-3.584 5.12-1.536 7.168l22.016 30.72c2.048 2.56 5.632 2.56 7.68 0.512l31.232-35.328c2.56-3.072 7.68-1.536 8.704 2.56l9.216 46.592c0.512 3.072 4.096 4.608 6.656 3.584l35.328-13.824c3.072-1.024 4.096-4.608 2.56-7.168l-23.04-38.912c-2.048-3.584 1.024-8.192 5.12-7.68l39.936 7.68c3.072 0.512 6.144-2.048 6.144-5.12l-1.536-37.888c-1.024-3.072-3.584-5.12-6.656-4.608zM543.488 900.608l-35.84 7.68c-3.584 1.024-6.656-3.072-5.12-6.144l16.896-34.816c1.024-2.56 0-5.632-2.56-6.144l-34.816-9.216c-2.56-0.512-5.12 1.024-5.632 4.096l-2.048 37.376c0 3.584-4.608 5.632-7.168 3.072l-27.136-25.088c-2.048-2.048-5.12-1.536-6.656 1.024l-17.92 29.184c-1.536 2.56-0.512 5.632 2.048 6.656l33.792 11.776c3.584 1.024 4.096 6.144 0.512 8.192l-32.768 18.432c-2.56 1.536-3.072 4.096-1.536 6.656l19.456 27.136c1.536 2.048 5.12 2.56 6.656 0.512l27.136-31.232c2.56-2.56 6.656-1.536 7.68 2.048l8.192 40.96c0.512 2.56 3.584 4.096 6.144 3.072l31.232-12.288c2.56-1.024 3.584-4.096 2.048-6.656l-20.48-34.304c-2.048-3.072 1.024-7.168 4.608-6.656l34.816 6.656c2.56 0.512 5.12-1.536 5.12-4.608l-1.536-33.28c0-2.56-2.56-4.608-5.12-4.096zM766.208 806.912l-40.96 8.704c-4.096 1.024-7.168-3.584-5.632-7.168l19.456-39.936c1.536-3.072 0-6.144-3.072-7.168l-39.936-10.752c-3.072-1.024-6.144 1.536-6.144 4.608l-2.56 42.496c0 4.096-5.12 6.144-8.192 3.584l-31.232-28.672c-2.56-2.048-6.144-1.536-7.68 1.024l-20.48 33.28c-1.536 2.56-0.512 6.144 2.56 7.68l38.4 13.824c4.096 1.536 4.608 7.168 1.024 9.216l-37.376 20.992c-2.56 1.536-3.584 5.12-1.536 7.168l22.016 30.72c2.048 2.56 5.632 2.56 7.68 0.512l31.232-35.328c2.56-3.072 7.68-1.536 8.704 2.56l9.216 46.592c0.512 3.072 4.096 4.608 6.656 3.584l35.328-13.824c3.072-1.024 4.096-4.608 2.56-7.168l-23.04-38.912c-2.048-3.584 1.024-8.192 5.12-7.68l39.936 7.68c3.072 0.512 6.144-2.048 6.144-5.12l-1.536-37.888c-1.024-2.56-3.584-5.12-6.656-4.608z"  /></svg>