<svg class="svg-icon" style="width: 1em;height: 1em;vertical-align: middle;fill: currentColor;overflow: hidden;" viewBox="0 0 1024 1024" version="1.1" xmlns="http://www.w3.org/2000/svg"><path d="M328.704 598.528h-0.512zM328.704 384h-0.512zM201.728 561.664c19.968 0 36.352-16.384 36.352-36.352s-16.384-36.352-36.352-36.352-36.352 16.384-36.352 36.352 16.384 36.352 36.352 36.352z"  /><path d="M38.912 634.368a36.352 35.84 0 1 0 72.704 0 36.352 35.84 0 1 0-72.704 0Z"  /><path d="M328.192 670.208c19.968 0 36.352-15.872 36.352-35.84s-16.384-35.84-36.352-35.84-36.352 15.872-36.352 35.84c0.512 19.968 16.384 35.84 36.352 35.84z"  /><path d="M38.912 419.84a36.352 35.84 0 1 0 72.704 0 36.352 35.84 0 1 0-72.704 0Z"  /><path d="M38.912 813.568h651.776c119.808 0 217.088-96.256 217.088-214.528 0-118.784-97.28-214.528-217.088-214.528S473.6 480.768 473.6 599.04v2.048c0 19.968 15.872 35.84 35.84 36.352 19.968 0 36.352-15.872 36.352-35.328v-2.56c0-78.848 65.024-143.36 144.896-143.36s144.896 64 144.896 143.36c0 78.848-65.024 143.36-144.896 143.36H38.912c-19.968 0-36.352 15.872-36.352 35.84s16.384 34.816 36.352 34.816zM328.192 455.68c19.968 0 36.352-15.872 36.352-35.84s-16.384-35.84-36.352-35.84-36.352 15.872-36.352 35.84c0.512 19.968 16.384 35.84 36.352 35.84zM979.968 921.088H38.912c-19.968 0-36.352 15.872-36.352 35.84s16.384 35.84 36.352 35.84h941.568c19.968 0 36.352-15.872 36.352-35.84s-16.896-35.84-36.864-35.84z"  /></svg>