<svg class="svg-icon" style="width: 1em;height: 1em;vertical-align: middle;fill: currentColor;overflow: hidden;" viewBox="0 0 1024 1024" version="1.1" xmlns="http://www.w3.org/2000/svg"><path d="M251.392 845.824a36.352 36.352 0 1 0 72.704 0 36.352 36.352 0 1 0-72.704 0Z"  /><path d="M506.368 809.472c-19.968 0-36.352 16.384-36.352 36.352 0 19.968 16.384 36.352 36.352 36.352s36.352-16.384 36.352-36.352-16.384-36.352-36.352-36.352zM186.88 919.04c-19.968 0-36.352 15.872-36.352 35.84s16.384 35.84 36.352 35.84 36.352-15.872 36.352-35.84-16.384-35.84-36.352-35.84zM186.88 704.512c-19.968 0-36.352 15.872-36.352 35.84s16.384 35.84 36.352 35.84 36.352-15.872 36.352-35.84-16.384-35.84-36.352-35.84zM400.896 776.192zM400.896 704.512c-19.968 0-36.352 15.872-36.352 35.84s16.384 35.84 36.352 35.84 36.352-15.872 36.352-35.84-16.384-35.84-36.352-35.84zM400.896 990.72zM400.896 919.04c-19.968 0-36.352 15.872-36.352 35.84s16.384 35.84 36.352 35.84 36.352-15.872 36.352-35.84c0-19.456-16.384-35.84-36.352-35.84zM724.992 809.472c-19.968 0-36.352 16.384-36.352 36.352 0 19.968 16.384 36.352 36.352 36.352 19.968 0 36.352-16.384 36.352-36.352-0.512-19.968-16.384-36.352-36.352-36.352z"  /><path d="M579.072 954.88a36.352 35.84 0 1 0 72.704 0 36.352 35.84 0 1 0-72.704 0Z"  /><path d="M579.072 740.352a36.352 35.84 0 1 0 72.704 0 36.352 35.84 0 1 0-72.704 0Z"  /><path d="M829.44 776.192zM829.44 704.512c-19.968 0-36.352 15.872-36.352 35.84s16.384 35.84 36.352 35.84c19.968 0 36.352-15.872 36.352-35.84s-16.384-35.84-36.352-35.84zM829.44 919.04c-19.968 0-36.352 15.872-36.352 35.84s16.384 35.84 36.352 35.84c19.968 0 36.352-15.872 36.352-35.84 0-19.456-16.384-35.84-36.352-35.84zM829.44 990.72zM156.672 373.76h698.88c19.968 0 35.84-15.872 35.84-35.84 0-19.456-15.872-35.84-35.84-35.84H156.672c-19.456 0-35.84 16.384-35.84 35.84 0 19.968 15.872 35.84 35.84 35.84zM855.552 433.664H156.672c-19.456 0-35.84 16.384-35.84 35.84 0 19.968 16.384 35.84 35.84 35.84h698.88c19.968 0 35.84-15.872 35.84-35.84s-16.384-35.84-35.84-35.84zM855.552 565.76H156.672c-19.456 0-35.84 15.872-35.84 35.84 0 19.456 16.384 35.84 35.84 35.84h698.88c19.968 0 35.84-16.384 35.84-35.84s-16.384-35.84-35.84-35.84z"  /></svg>