<svg class="svg-icon" style="width: 1em;height: 1em;vertical-align: middle;fill: currentColor;overflow: hidden;" viewBox="0 0 1024 1024" version="1.1" xmlns="http://www.w3.org/2000/svg"><path d="M518.656 169.984c21.504 0 38.912-17.92 38.912-40.96V75.264c0-22.528-17.408-40.96-38.912-40.96s-38.912 17.92-38.912 40.96v53.76c0 22.528 17.408 40.96 38.912 40.96zM807.936 273.408L844.8 235.52c15.36-15.872 15.36-41.984 0.512-57.344-15.36-15.872-39.936-15.872-55.808 0.512l-36.864 38.4c-15.36 15.872-15.36 41.984-0.512 57.344 15.36 15.36 39.936 15.36 55.808-1.024zM144.384 473.6H92.16c-22.016 0-39.424 17.92-39.424 40.448s17.408 40.448 39.424 40.448h52.224c22.016 0 39.424-17.92 39.424-40.448s-16.896-40.448-39.424-40.448zM225.28 758.784l-36.864 38.4c-15.36 15.872-15.36 41.984-0.512 57.344 15.36 15.872 39.936 15.872 55.808-0.512l36.864-38.4c15.36-15.872 15.36-41.984 0.512-57.344-15.36-15.36-39.936-15.872-55.808 0.512zM227.84 266.752c15.36 15.872 40.448 15.872 55.808 0.512 15.36-15.872 15.36-40.96-0.512-57.344l-36.864-38.4c-15.36-15.872-40.448-15.872-55.808-0.512-15.36 15.872-15.36 40.96 0.512 57.344l36.864 38.4zM517.12 858.624c-21.504 0-38.912 17.92-38.912 40.96v53.76c0 22.528 17.408 40.96 38.912 40.96s38.912-17.92 38.912-40.96v-53.76c0-22.528-17.408-40.96-38.912-40.96zM804.352 758.272c-15.36-15.872-40.448-15.872-55.808-0.512-15.36 15.872-15.36 40.96 0.512 57.344l36.864 38.4c15.36 15.872 40.448 15.872 55.808 0.512 15.36-15.872 15.36-40.96-0.512-57.344l-36.864-38.4zM941.056 478.208h-52.224c-22.016 0-39.424 17.92-39.424 40.448 0 22.016 17.408 40.448 39.424 40.448h52.224c22.016 0 39.424-17.92 39.424-40.448s-17.408-40.448-39.424-40.448z"  /><path d="M250.368 516.096a274.944 265.728 90 1 0 531.456 0 274.944 265.728 90 1 0-531.456 0Z"  /></svg>