<svg class="svg-icon" style="width: 1em;height: 1em;vertical-align: middle;fill: currentColor;overflow: hidden;" viewBox="0 0 1024 1024" version="1.1" xmlns="http://www.w3.org/2000/svg"><path d="M312.832 769.024c-11.776-11.776-30.208-11.776-41.984 0l-47.104 47.104c-11.776 11.776-11.776 30.208 0 41.984l47.104 47.104c11.776 11.776 30.208 11.776 41.984 0l47.104-47.104c11.776-11.776 11.776-30.208 0-41.984l-47.104-47.104zM732.672 766.464c-11.776-11.776-30.208-11.776-41.984 0l-47.104 47.104c-11.776 11.776-11.776 30.208 0 41.984l47.104 47.104c11.776 11.776 30.208 11.776 41.984 0l47.104-47.104c11.776-11.776 11.776-30.208 0-41.984l-47.104-47.104zM525.824 863.744c-10.752-10.752-28.16-10.752-38.912 0l-44.032 44.032c-10.752 10.752-10.752 28.16 0 38.912l44.032 44.032c10.752 10.752 28.16 10.752 38.912 0l44.032-44.032c10.752-10.752 10.752-28.16 0-38.912l-44.032-44.032zM728.064 394.24c-26.112 0-50.176 9.728-70.656 22.528 0-3.072 0.512-5.632 0.512-8.192 0-114.176-86.528-210.944-197.12-210.944-91.648 0-171.008 67.072-194.048 155.648-71.68 17.92-124.416 85.504-124.416 165.888 0 86.016 56.32 158.72 135.68 170.496h72.192c2.048-20.992 11.264-41.472 27.136-57.344L431.104 578.56c17.92-17.92 41.984-27.648 67.072-27.648s49.152 9.728 67.072 27.648l53.76 53.76c15.872 15.872 25.088 36.352 27.136 57.344h96.768c70.656-7.168 126.976-70.656 126.976-146.432-0.512-81.408-63.488-148.992-141.824-148.992z"  /><path d="M522.24 631.808c-13.312-13.312-34.304-13.312-47.616 0l-53.76 53.76c-13.312 13.312-13.312 34.304 0 47.616l53.76 53.76c13.312 13.312 34.304 13.312 47.616 0l53.76-53.76c13.312-13.312 13.312-34.304 0-47.616L522.24 631.808z"  /></svg>