<svg class="svg-icon" style="width: 1em;height: 1em;vertical-align: middle;fill: currentColor;overflow: hidden;" viewBox="0 0 1024 1024" version="1.1" xmlns="http://www.w3.org/2000/svg"><path d="M316.416 769.024c-11.776-11.776-30.208-11.776-41.984 0l-47.104 47.104c-11.776 11.776-11.776 30.208 0 41.984l47.104 47.104c11.776 11.776 30.208 11.776 41.984 0l47.104-47.104c11.776-11.776 11.776-30.208 0-41.984l-47.104-47.104zM736.256 766.464c-11.776-11.776-30.208-11.776-41.984 0l-47.104 47.104c-11.776 11.776-11.776 30.208 0 41.984l47.104 47.104c11.776 11.776 30.208 11.776 41.984 0l47.104-47.104c11.776-11.776 11.776-30.208 0-41.984l-47.104-47.104zM731.648 394.24c-26.112 0-50.176 9.728-70.656 22.528 0-3.072 0.512-5.632 0.512-8.192 0-114.176-86.528-210.944-197.12-210.944-91.648 0-171.008 67.072-194.048 155.648-71.68 17.92-124.416 85.504-124.416 165.888 0 86.016 56.32 158.72 135.68 170.496h72.192c2.048-20.992 11.264-41.472 27.136-57.344L434.688 578.56c17.92-17.92 41.984-27.648 67.072-27.648s49.152 9.728 67.072 27.648l53.76 53.76c15.872 15.872 25.088 36.352 27.136 57.344H745.984c70.656-7.168 126.976-70.656 126.976-146.432-0.512-81.408-63.488-148.992-141.312-148.992z"  /><path d="M525.312 631.808c-13.312-13.312-34.304-13.312-47.616 0l-53.76 53.76c-13.312 13.312-13.312 34.304 0 47.616l53.76 53.76c13.312 13.312 34.304 13.312 47.616 0l53.76-53.76c13.312-13.312 13.312-34.304 0-47.616l-53.76-53.76zM571.904 898.048l-39.424 8.704c-4.096 1.024-7.168-3.072-5.12-6.656l18.944-37.888c1.536-2.56 0-6.144-3.072-6.656l-38.4-10.24c-3.072-1.024-5.632 1.536-6.144 4.608l-2.56 40.96c0 4.096-5.12 6.144-8.192 3.072l-29.696-27.136c-2.048-2.048-5.632-1.536-7.168 1.024l-19.968 31.744c-1.536 2.56-0.512 6.144 2.56 7.168l36.864 12.8c4.096 1.536 4.608 6.656 0.512 8.704l-36.352 19.968c-2.56 1.536-3.072 4.608-1.536 7.168l21.504 29.184c2.048 2.56 5.632 2.56 7.68 0.512l29.696-33.792c2.56-3.072 7.68-1.536 8.192 2.048l9.216 44.032c0.512 3.072 3.584 4.608 6.656 3.584l33.792-13.312c2.56-1.024 4.096-4.608 2.56-7.168l-22.016-36.864c-2.048-3.584 1.024-8.192 5.12-7.168l38.4 7.168c3.072 0.512 5.632-2.048 5.632-5.12l-1.536-35.84c-0.512-3.072-3.584-5.12-6.144-4.608z"  /></svg>