<svg class="svg-icon" style="width: 1em;height: 1em;vertical-align: middle;fill: currentColor;overflow: hidden;" viewBox="0 0 1024 1024" version="1.1" xmlns="http://www.w3.org/2000/svg"><path d="M731.136 391.168c-26.112 0-50.176 9.728-70.656 22.528 0-3.072 0.512-5.632 0.512-8.192 0-114.176-86.528-210.944-197.12-210.944-91.648 0-171.008 67.072-194.048 155.648-71.68 17.92-124.416 85.504-124.416 165.888 0 86.016 56.32 158.72 135.68 170.496h53.76l210.944-125.952c11.264-6.656 23.552-10.24 36.352-10.24 27.648 0 52.736 16.384 64.512 41.984 11.264 25.088 7.168 54.784-11.264 75.776L619.52 686.08H745.984c70.656-7.168 126.976-70.656 126.976-146.432-0.512-80.896-63.488-148.48-141.824-148.48z"  /><path d="M577.536 612.864L343.552 752.64c-5.632 3.584-6.144 11.776-0.512 15.872l98.816 70.656c4.096 3.072 5.12 8.192 2.56 12.288l-73.216 122.88c-5.12 8.704 5.632 18.432 13.824 12.288l184.832-137.216c4.608-3.584 5.12-10.752 0.512-14.336L486.4 759.296c-3.584-3.584-4.096-9.216-1.024-13.312l103.936-118.784c7.168-8.192-2.56-19.456-11.776-14.336z"  /></svg>