<svg class="svg-icon" style="width: 1em;height: 1em;vertical-align: middle;fill: currentColor;overflow: hidden;" viewBox="0 0 1024 1024" version="1.1" xmlns="http://www.w3.org/2000/svg"><path d="M730.112 390.144c-26.112 0-50.176 9.728-70.656 22.528 0-3.072 0.512-5.632 0.512-8.192 0-114.176-86.528-210.944-197.12-210.944-91.648 0-171.008 67.072-194.048 155.648-71.68 17.92-124.416 85.504-124.416 165.888 0 86.016 56.32 158.72 135.68 170.496h464.384c70.656-7.168 126.976-70.656 126.976-146.432 0-80.896-62.976-148.992-141.312-148.992zM449.536 802.304l-39.936 9.216c-4.096 1.024-7.168-3.072-5.12-7.168l19.456-39.424c1.536-3.072 0-6.144-3.072-7.168l-38.4-10.24c-3.072-1.024-6.144 1.536-6.144 4.608l-2.56 42.496c-0.512 4.096-5.12 6.144-8.192 3.584l-29.696-28.16c-2.048-2.048-5.632-1.536-7.168 1.024l-20.48 33.28c-1.536 2.56-0.512 6.144 2.56 7.168l37.376 13.312c4.096 1.536 4.608 7.168 0.512 9.216l-36.864 20.992c-2.56 1.536-3.584 5.12-1.536 7.168l21.504 30.208c2.048 2.56 5.632 2.56 7.68 0.512l30.208-35.328c2.56-3.072 7.68-1.536 8.192 2.048l8.704 46.08c0.512 3.072 3.584 4.608 6.656 3.584l34.304-14.336c2.56-1.024 4.096-4.608 2.56-7.168l-22.016-38.4c-2.048-3.584 1.024-8.192 5.12-7.68l38.912 7.168c3.072 0.512 6.144-2.048 5.632-5.12l-1.024-37.376c-1.024-2.56-4.096-4.608-7.168-4.096zM701.952 802.304l-39.936 9.216c-4.096 1.024-7.168-3.072-5.12-7.168l19.456-39.424c1.536-3.072 0-6.144-3.072-7.168l-38.4-10.24c-3.072-1.024-6.144 1.536-6.144 4.608l-2.56 42.496c-0.512 4.096-5.12 6.144-8.192 3.584l-29.696-28.16c-2.048-2.048-5.632-1.536-7.168 1.024l-20.48 33.28c-1.536 2.56-0.512 6.144 2.56 7.168l37.376 13.312c4.096 1.536 4.608 7.168 0.512 9.216L563.2 855.04c-2.56 1.536-3.584 5.12-1.536 7.168l21.504 30.208c2.048 2.56 5.632 2.56 7.68 0.512l30.208-35.328c2.56-3.072 7.68-1.536 8.192 2.048l8.704 46.08c0.512 3.072 3.584 4.608 6.656 3.584l34.304-14.336c2.56-1.024 4.096-4.608 2.56-7.168l-22.016-38.4c-2.048-3.584 1.024-8.192 5.12-7.68l38.912 7.168c3.072 0.512 6.144-2.048 5.632-5.12l-1.024-37.376c-0.512-2.56-3.072-4.608-6.144-4.096z"  /></svg>